<svg width="619" height="223" viewBox="0 0 619 223" fill="#A35671" xmlns="http://www.w3.org/2000/svg">
<path d="M136.8 174.24C136.8 179.232 139.296 181.728 144.288 181.728C149.472 181.728 153.792 180.768 157.248 178.848L155.808 211.392C146.592 218.88 136.224 222.624 124.704 222.624C103.584 222.624 91.872 214.944 89.568 199.584C79.968 214.944 65.856 222.624 47.232 222.624C15.744 222.624 0 209.088 0 182.016C0 177.408 0.48 172.32 1.44 166.752L7.488 133.056C10.56 115.776 17.568 102.048 28.512 91.872C39.648 81.504 54.048 76.32 71.712 76.32C89.568 76.32 101.664 80.448 108 88.704L109.44 80.064H153.216L137.088 170.784C136.896 171.936 136.8 173.088 136.8 174.24ZM51.552 160.416C51.168 162.144 50.976 164.544 50.976 167.616C50.976 170.688 52.416 173.76 55.296 176.832C58.176 179.712 62.976 181.152 69.696 181.152C76.608 181.152 82.56 178.464 87.552 173.088L96.192 124.704C94.08 119.904 89.088 117.504 81.216 117.504C66.432 117.504 57.792 124.608 55.296 138.816L51.552 160.416Z" fill="#A35671"/>
<path d="M257.922 76.032C276.93 76.032 290.274 81.312 297.954 91.872C303.714 99.36 306.594 108.48 306.594 119.232C306.594 123.648 306.114 128.256 305.154 133.056L299.394 165.312C296.13 183.744 287.586 197.952 273.762 207.936C260.13 217.728 242.85 222.624 221.922 222.624C201.186 222.624 185.25 218.496 174.114 210.24C165.282 203.712 160.866 194.592 160.866 182.88C160.866 179.808 161.154 176.64 161.73 173.376L192.258 0H241.218L226.53 83.808C234.594 78.624 245.058 76.032 257.922 76.032ZM255.33 137.376C255.522 135.84 255.618 133.728 255.618 131.04C255.618 128.16 254.37 125.184 251.874 122.112C249.57 118.848 244.386 117.216 236.322 117.216C228.45 117.216 222.786 119.616 219.33 124.416L210.978 172.512C213.282 178.272 218.082 181.152 225.378 181.152C240.162 181.152 248.898 173.76 251.586 158.976L255.33 137.376Z" fill="#A35671"/>
<path d="M438.192 174.24C438.192 179.232 440.688 181.728 445.68 181.728C450.864 181.728 455.184 180.768 458.64 178.848L457.2 211.392C447.984 218.88 437.616 222.624 426.096 222.624C404.976 222.624 393.264 214.944 390.96 199.584C381.36 214.944 367.248 222.624 348.624 222.624C317.136 222.624 301.392 209.088 301.392 182.016C301.392 177.408 301.872 172.32 302.832 166.752L308.88 133.056C311.952 115.776 318.96 102.048 329.904 91.872C341.04 81.504 355.44 76.32 373.104 76.32C390.96 76.32 403.056 80.448 409.392 88.704L410.832 80.064H454.608L438.48 170.784C438.288 171.936 438.192 173.088 438.192 174.24ZM352.944 160.416C352.56 162.144 352.368 164.544 352.368 167.616C352.368 170.688 353.808 173.76 356.688 176.832C359.568 179.712 364.368 181.152 371.088 181.152C378 181.152 383.952 178.464 388.944 173.088L397.584 124.704C395.472 119.904 390.48 117.504 382.608 117.504C367.824 117.504 359.184 124.608 356.688 138.816L352.944 160.416Z" fill="#A35671"/>
<path d="M597.944 147.208C597.944 152.2 600.44 154.696 605.432 154.696C610.616 154.696 614.936 153.736 618.392 151.816L616.952 184.36C607.736 191.848 597.368 195.592 585.848 195.592C564.728 195.592 553.016 187.912 550.712 172.552C541.112 187.912 527 195.592 508.376 195.592C476.888 195.592 461.144 182.056 461.144 154.984C461.144 150.376 461.624 145.288 462.584 139.72L468.632 106.024C471.704 88.744 478.712 75.0161 489.656 64.8401C500.792 54.4721 515.192 49.2881 532.856 49.2881C550.712 49.2881 562.808 53.4161 569.144 61.6721L570.584 53.0321H614.36L598.232 143.752C598.04 144.904 597.944 146.056 597.944 147.208ZM512.696 133.384C512.312 135.112 512.12 137.512 512.12 140.584C512.12 143.656 513.56 146.728 516.44 149.8C519.32 152.68 524.12 154.12 530.84 154.12C537.752 154.12 543.704 151.432 548.696 146.056L557.336 97.6721C555.224 92.8721 550.232 90.4721 542.36 90.4721C527.576 90.4721 518.936 97.5761 516.44 111.784L512.696 133.384Z" fill="#A35671"/>
</svg>
